<svg class="svg-icon" style="width: 10em; height: 1em;vertical-align: middle;fill: black;overflow: hidden;" viewBox="0 0 1024 1024" version="1.1" xmlns="http://www.w3.org/2000/svg"><path d="M840.45283 328.45283 840.45283 985.358491 183.54717 985.358491 183.54717 985.358491 183.54717 328.45283 183.54717 328.45283 415.396226 328.45283 415.396226 289.811321 173.886792 289.811321 144.90566 289.811321 144.90566 1024 173.886792 1024 859.773585 1024 879.09434 1024 879.09434 289.811321 850.113208 289.811321 608.603774 289.811321 608.603774 328.45283 840.45283 328.45283ZM531.320755 66.9361 656.621278 192.23663 683.94496 164.912957 520.002927 0.970917 513.927226 7.04661 513.927226 7.04661 507.851525 0.970917 343.909492 164.912957 371.233174 192.23663 492.679245 70.790551 492.679245 656.90566 531.320755 656.90566 531.320755 66.9361 531.320755 66.9361Z"  /></svg>
